HIERARCHY
ROOT Model_Hips
{
	OFFSET 0.000000 96.915077 0.000000
	CHANNELS 6 Xposition Yposition Zposition Xrotation Yrotation Zrotation
	JOINT Model_Spine
	{
		OFFSET 0.000000 11.137703 -1.289900
		CHANNELS 3 Xrotation Yrotation Zrotation
		JOINT Model_Spine1
		{
			OFFSET 0.000000 12.993942 -1.504922
			CHANNELS 3 Xrotation Yrotation Zrotation
			JOINT Model_Spine2
			{
				OFFSET 0.000000 14.850220 -1.719911
				CHANNELS 3 Xrotation Yrotation Zrotation
				JOINT Model_Neck
				{
					OFFSET 0.000000 16.706543 -1.934903
					CHANNELS 3 Xrotation Yrotation Zrotation
					JOINT Model_Head
					{
						OFFSET 0.000000 10.471298 2.002100
						CHANNELS 3 Xrotation Yrotation Zrotation
						JOINT Model_HeadTop_End
						{
							OFFSET 0.000000 20.842606 3.985100
							CHANNELS 3 Xrotation Yrotation Zrotation
							End Site
							{
								OFFSET 0.000000 21.220154 0.000000
							}
						}
					}
				}
				JOINT Model_LeftShoulder
				{
					OFFSET 7.008500 14.768600 -1.919946
					CHANNELS 3 Xrotation Yrotation Zrotation
					JOINT Model_LeftArm
					{
						OFFSET 14.126271 -3.718048 0.029937
						CHANNELS 3 Xrotation Yrotation Zrotation
						JOINT Model_LeftForeArm
						{
							OFFSET 28.282801 0.000000 0.000000
							CHANNELS 3 Xrotation Yrotation Zrotation
							JOINT Model_LeftHand
							{
								OFFSET 26.204689 0.000000 0.000000
								CHANNELS 3 Xrotation Yrotation Zrotation
								End Site
								{
									OFFSET 26.204704 0.000000 0.000000
								}
							}
						}
					}
				}
				JOINT Model_RightShoulder
				{
					OFFSET -7.008500 14.768555 -1.949840
					CHANNELS 3 Xrotation Yrotation Zrotation
					JOINT Model_RightArm
					{
						OFFSET -14.126281 -3.718018 -0.029932
						CHANNELS 3 Xrotation Yrotation Zrotation
						JOINT Model_RightForeArm
						{
							OFFSET -28.283798 0.000000 -0.000001
							CHANNELS 3 Xrotation Yrotation Zrotation
							JOINT Model_RightHand
							{
								OFFSET -26.204193 0.000000 -0.000001
								CHANNELS 3 Xrotation Yrotation Zrotation
								End Site
								{
									OFFSET -26.204208 0.000000 -0.000001
								}
							}
						}
					}
				}
			}
		}
	}
	JOINT Model_LeftUpLeg
	{
		OFFSET 8.327700 -6.193199 -0.402800
		CHANNELS 3 Xrotation Yrotation Zrotation
		JOINT Model_LeftLeg
		{
			OFFSET 0.735802 -42.108742 -0.610721
			CHANNELS 3 Xrotation Yrotation Zrotation
			JOINT Model_LeftFoot
			{
				OFFSET -0.735806 -36.833748 -0.172876
				CHANNELS 3 Xrotation Yrotation Zrotation
				JOINT Model_LeftToeBase
				{
					OFFSET -0.565857 -11.977769 16.297714
					CHANNELS 3 Xrotation Yrotation Zrotation
					JOINT Model_LeftToe_End
					{
						OFFSET -0.111712 -0.312793 7.857784
						CHANNELS 3 Xrotation Yrotation Zrotation
						End Site
						{
							OFFSET -0.111712 -0.312793 7.857784
						}
					}
				}
			}
		}
	}
	JOINT Model_RightUpLeg
	{
		OFFSET -8.327700 -6.193199 -0.516500
		CHANNELS 3 Xrotation Yrotation Zrotation
		JOINT Model_RightLeg
		{
			OFFSET -0.735785 -42.108738 -0.434061
			CHANNELS 3 Xrotation Yrotation Zrotation
			JOINT Model_RightFoot
			{
				OFFSET 0.735776 -36.833748 -0.021630
				CHANNELS 3 Xrotation Yrotation Zrotation
				JOINT Model_RightToeBase
				{
					OFFSET 0.565817 -11.977745 15.903093
					CHANNELS 3 Xrotation Yrotation Zrotation
					JOINT Model_RightToe_End
					{
						OFFSET 0.111702 -0.312791 7.811342
						CHANNELS 3 Xrotation Yrotation Zrotation
						End Site
						{
							OFFSET 0.111702 -0.312791 7.811342
						}
					}
				}
			}
		}
	}
}
MOTION
Frames: 5
Frame Time: 0.033333
-0.076026 94.323189 0.208669 -7.270537 1.737875 0.645101 14.000607 4.742608 0.016480 7.912811 1.559703 -0.560586 7.747271 1.735558 -0.421507 -0.947582 -0.922094 0.314863 -0.944682 -0.925810 0.319989 0.000001 0.000001 -0.000000 0.517718 -6.933812 -11.997319 15.823653 -10.681426 -60.561723 -0.000020 -39.638053 -0.000012 -0.000000 0.000000 -0.000001 -1.114551 7.437005 19.677440 -9.644283 4.375131 56.120410 0.000012 39.217618 -0.000010 0.000000 -0.000000 -0.000000 -11.631152 1.335019 5.014533 49.976761 3.109601 -0.396455 -12.248432 1.488762 -7.703549 -17.364597 -0.116093 0.862004 0.000000 0.000000 -0.000000 -5.896597 -4.524087 -1.599033 32.829998 -1.739141 -2.389352 -19.608462 -2.870216 2.949378 -0.251958 0.000001 -0.000001 0.000000 0.000000 0.000000 
-0.265150 94.071251 -2.157874 -8.024944 3.076176 0.897979 13.288358 3.570719 0.485616 7.862668 1.270513 -0.477577 7.695686 1.445001 -0.336360 -0.882594 -0.740068 0.206736 -0.879536 -0.743568 0.214378 0.000001 -0.000001 0.000000 0.508257 -6.921052 -12.343514 13.169373 -11.871111 -58.198157 0.000011 -38.980395 0.000014 -0.000001 -0.000000 0.000000 -0.832122 6.566199 18.707565 -2.577776 -0.756672 58.321442 0.000001 44.030193 0.000001 0.000002 -0.000000 -0.000000 -5.906213 1.699355 5.118662 51.975622 1.168639 1.559656 -12.231449 2.090846 -11.123632 -23.080259 -0.525272 2.201915 -0.000000 -0.000001 -0.000000 -7.494419 -4.751025 -1.839529 34.487015 -2.674776 -2.050408 -18.928066 -2.904582 2.867385 -0.252126 0.000001 -0.000000 0.000000 0.000001 0.000000 
-0.380168 93.488724 -4.630512 -8.752072 4.444522 0.669850 12.557595 1.857292 1.526132 7.848235 0.859025 -0.286107 7.678330 1.035507 -0.143043 -0.807284 -0.490489 0.062750 -0.804991 -0.492562 0.072301 0.000002 -0.000001 0.000000 0.493990 -6.928949 -12.843534 10.155336 -12.441821 -56.446876 0.000001 -39.604579 -0.000005 -0.000000 -0.000001 0.000000 -0.566795 5.743388 17.823537 6.052211 -3.495950 59.835742 0.000004 49.617455 -0.000006 -0.000001 0.000001 -0.000000 -0.014211 2.512801 6.453622 52.182113 -0.736144 3.348631 -11.525305 2.632275 -15.958587 -26.931407 -1.531508 4.439202 -0.000000 0.000000 -0.000000 -9.570400 -5.011440 -1.782197 37.006614 -3.604051 -1.569066 -18.607843 -2.928228 2.797134 -0.252086 0.000002 -0.000001 0.000000 0.000000 0.000000 
-0.420746 92.747437 -7.205505 -9.444603 5.732164 0.199822 11.909357 -0.186313 2.540135 7.845201 0.384454 -0.110470 7.672277 0.560669 0.033113 -0.826694 -0.155957 -0.027471 -0.824649 -0.156459 -0.013775 0.000003 0.000001 0.000000 0.479015 -7.065814 -13.234838 6.965951 -11.631020 -55.116116 -0.000006 -41.596286 0.000004 -0.000002 -0.000001 0.000001 -0.329526 4.836713 17.085740 15.271506 -2.982629 60.315447 0.000026 54.081175 -0.000023 0.000002 0.000000 0.000000 6.059778 3.744690 7.822875 50.500674 -4.088798 5.678357 -11.306931 3.287079 -20.082547 -28.505643 -2.712660 7.073617 0.000001 -0.000000 0.000000 -11.823779 -5.512265 -1.734727 39.616450 -4.156073 -0.996499 -18.237251 -2.935706 2.667908 -0.252060 0.000003 0.000000 0.000000 0.000000 0.000000 
-0.395400 92.079773 -9.918446 -10.133045 6.850223 -0.152971 11.500922 -2.330864 3.262127 7.881868 -0.080504 0.030195 7.706257 0.094618 0.172819 -0.730606 0.188474 -0.117753 -0.728795 0.188988 -0.100513 0.000000 0.000000 0.000000 0.451642 -7.429351 -13.727388 3.897629 -9.744794 -53.702728 0.000006 -44.692646 0.000004 0.000001 0.000001 -0.000000 -0.099117 3.835104 16.305499 23.259277 -1.264131 60.975407 -0.000005 56.754327 0.000012 -0.000002 0.000001 -0.000000 12.422879 4.929631 8.609813 46.533901 -5.351942 7.695728 -12.374963 0.014995 -21.737707 -27.595269 -3.315015 9.589386 -0.000001 -0.000001 0.000000 -13.907717 -6.348301 -2.071568 41.458770 -4.107458 -0.423691 -17.296945 -2.900299 2.393752 -0.252049 0.000001 -0.000000 0.000000 -0.000000 0.000000 
